<svg width="108" height="108" viewBox="0 0 108 108" fill="none" xmlns="http://www.w3.org/2000/svg">
<path d="M91.5 104C95.642 104 99 100.642 99 96.5C99 92.358 95.642 89 91.5 89C87.358 89 84 92.358 84 96.5C84 100.642 87.358 104 91.5 104Z" fill="#606060" stroke="#606060" stroke-width="8" stroke-linecap="round" stroke-linejoin="round"/>
<path d="M41.5 104C45.642 104 49 100.642 49 96.5C49 92.358 45.642 89 41.5 89C37.3579 89 34 92.358 34 96.5C34 100.642 37.3579 104 41.5 104Z" fill="#606060" stroke="#606060" stroke-width="8" stroke-linecap="round" stroke-linejoin="round"/>
<path d="M19 14H104L94 69H29L19 14ZM19 14C18.1667 10.6666 14 4 4 4" stroke="#606060" stroke-width="8" stroke-linecap="round" stroke-linejoin="round"/>
<path d="M94 69H29H20.1539C11.2323 69 6.5 72.906 6.5 79C6.5 85.094 11.2323 89 20.1539 89H91.5" stroke="#606060" stroke-width="8" stroke-linecap="round" stroke-linejoin="round"/>
</svg>
